Coordinates
version=1
nRows=38
nColumns=12
inDegrees=yes

Units are S.I. units (second, meters, Newtons, ...)
Angles are in degrees

endheader
time	SC_y	SC_z	SC_x	AC_y	AC_z	AC_x	GH_y	GH_z	GH_yy	EL_x	PS_y
       0.0              -53.21          27.86          27.14          40.87         -19.44          -17.1         -129.8          14.66         -49.67          45.36          31.13
   0.04525              -53.21          27.86          27.14          40.87         -19.44          -17.1         -129.8          14.66         -49.65          45.37          31.13
   0.09051               -53.2          27.86          27.15          40.87         -19.43          -17.1         -129.8          14.67         -49.63          45.37          31.13
    0.1358               -53.2          27.86          27.15          40.87         -19.43         -17.09         -129.7          14.67         -49.61          45.38          31.14
     0.181               -53.2          27.87          27.16          40.88         -19.42         -17.09         -129.7          14.68         -49.58          45.38          31.14
    0.2263              -53.19          27.87          27.16          40.88         -19.42         -17.08         -129.7          14.68         -49.56          45.39          31.15
    0.2715              -53.19          27.87          27.17          40.88         -19.41         -17.08         -129.6          14.69         -49.53           45.4          31.15
    0.3168              -53.18          27.87          27.17          40.88          -19.4         -17.07         -129.6           14.7          -49.5           45.4          31.16
     0.362              -53.18          27.87          27.18          40.89          -19.4         -17.07         -129.6          14.71         -49.47          45.41          31.16
    0.4073              -53.17          27.87          27.19          40.89         -19.39         -17.06         -129.5          14.71         -49.43          45.42          31.17
    0.4525              -53.16          27.87          27.19          40.89         -19.38         -17.05         -129.5          14.72         -49.39          45.43          31.17
    0.4978              -53.16          27.87           27.2          40.89         -19.38         -17.05         -129.4          14.73         -49.35          45.43          31.18
     0.543              -53.15          27.87          27.21           40.9         -19.37         -17.04         -129.4          14.74         -49.31          45.44          31.19
    0.5883              -53.14          27.87          27.22           40.9         -19.36         -17.03         -129.3          14.75         -49.26          45.46          31.19
    0.6335              -53.13          27.87          27.23           40.9         -19.35         -17.02         -129.3          14.76         -49.21          45.47           31.2
    0.6788              -53.12          27.87          27.24          40.91         -19.34         -17.01         -129.2          14.78         -49.16          45.48          31.21
    0.7241              -53.11          27.87          27.25          40.91         -19.32          -17.0         -129.1          14.79          -49.1          45.49          31.22
    0.7693               -53.1          27.88          27.26          40.92         -19.31         -16.99         -129.1           14.8         -49.03          45.51          31.23
    0.8146              -53.09          27.88          27.27          40.92          -19.3         -16.97         -129.0          14.82         -48.96          45.52          31.24
    0.8598              -53.07          27.88          27.29          40.93         -19.28         -16.96         -128.9          14.84         -48.88          45.54          31.25
    0.9051              -53.06          27.88           27.3          40.94         -19.26         -16.95         -128.8          14.86         -48.79          45.56          31.27
    0.9503              -53.04          27.88          27.32          40.94         -19.25         -16.93         -128.7          14.88          -48.7          45.58          31.28
    0.9956              -53.02          27.88          27.34          40.95         -19.22         -16.91         -128.6           14.9          -48.6           45.6           31.3
     1.041               -53.0          27.88          27.36          40.96          -19.2         -16.89         -128.5          14.93         -48.48          45.63          31.32
     1.086              -52.98          27.89          27.39          40.97         -19.18         -16.86         -128.3          14.96         -48.35          45.66          31.34
     1.131              -52.95          27.89          27.41          40.98         -19.15         -16.84         -128.2          14.99         -48.21          45.69          31.36
     1.177              -52.93          27.89          27.44          40.99         -19.12         -16.81         -128.0          15.03         -48.05          45.73          31.39
     1.222              -52.89           27.9          27.48          41.01         -19.08         -16.78         -127.8          15.07         -47.87          45.77          31.42
     1.267              -52.86           27.9          27.51          41.02         -19.04         -16.74         -127.5          15.12         -47.66          45.81          31.45
     1.312              -52.82           27.9          27.56          41.04         -18.99          -16.7         -127.3          15.17         -47.43          45.87          31.49
     1.358              -52.77          27.91          27.61          41.06         -18.94         -16.65         -127.0          15.23         -47.16          45.93          31.53
     1.403              -52.72          27.91          27.66          41.08         -18.88         -16.59         -126.6           15.3         -46.86          45.99          31.58
     1.448              -52.66          27.92          27.73          41.11         -18.81         -16.53         -126.2          15.38         -46.51          46.07          31.63
     1.493              -52.58          27.93           27.8          41.14         -18.73         -16.46         -125.8          15.47          -46.1          46.16           31.7
     1.539               -52.5          27.93          27.89          41.17         -18.63         -16.37         -125.3          15.58         -45.63          46.27          31.77
     1.584               -52.4          27.94           28.0          41.22         -18.52         -16.27         -124.6          15.71         -45.06           46.4          31.86
     1.629              -52.28          27.96          28.12          41.27         -18.39         -16.15         -123.9          15.86         -44.39          46.55          31.97
     1.674              -52.14          27.97          28.27          41.33         -18.23          -16.0         -123.0          16.04         -43.59          46.73           32.1
